<svg width="166" height="167" viewBox="0 0 166 167" fill="none" xmlns="http://www.w3.org/2000/svg">
<path d="M137.111 0.350311C152.274 1.09248 165.281 14.3451 165.606 29.6079C165.8 38.7344 165.707 47.8675 165.703 56.9976C165.693 83.3517 165.791 109.707 165.592 136.059C165.476 151.375 153.22 164.304 137.948 165.909C137.313 166.069 136.736 166.069 135.872 165.937C135.107 165.755 134.63 165.663 134.153 165.663C99.7102 165.656 65.2677 165.655 30.8251 165.674C30.2547 165.674 29.6845 165.932 29.1141 166.069C28.5375 166.069 27.9609 166.069 27.1593 165.913C11.7121 163.158 1.2783 152.191 0.0234976 137.248C0.0520598 101.806 0.0512631 66.5572 0.046029 31.3088C0.0459165 30.5508 -0.00512067 29.7929 0.000420635 28.8607C0.80822 15.8869 10.3348 4.40455 22.8082 1.24293C24.4918 0.816176 26.1817 0.413712 27.8686 0C27.8686 0 28.0762 0 28.2631 0.160557C28.9988 0.351394 29.5477 0.408113 30.0965 0.408177C64.7318 0.412218 99.3672 0.412175 134.002 0.408923C135.039 0.408825 136.075 0.370704 137.111 0.350311ZM156.449 140.232C156.656 138.036 157.041 135.84 157.043 133.643C157.082 99.9588 157.087 66.2742 157.036 32.5897C157.033 30.3513 156.528 28.1136 156.294 25.5746C153.781 15.7532 145.123 8.83161 134.942 8.81573C100.151 8.76146 65.3605 8.75562 30.5699 8.82038C18.4123 8.84301 8.60766 18.7958 8.59784 30.9635C8.56981 65.685 8.55652 100.407 8.64936 135.128C8.65641 137.764 9.19431 140.524 10.0878 143.01C12.9368 150.937 21.075 156.975 28.7596 157.208C29.7253 157.26 30.6909 157.356 31.6566 157.356C65.4891 157.364 99.3216 157.364 133.154 157.358C134.049 157.357 134.943 157.27 136.1 157.259C136.273 157.231 136.446 157.204 136.847 157.251C136.978 157.17 137.108 157.089 137.57 157.083C146.702 155.972 154.736 148.833 156.449 140.232Z" fill="white"/>
<path d="M29.3086 166.069C29.6843 165.931 30.2546 165.674 30.825 165.674C65.2675 165.655 99.7101 165.656 134.153 165.663C134.63 165.663 135.107 165.755 135.699 165.937C100.377 166.069 64.9399 166.069 29.3086 166.069Z" fill="white"/>
<path d="M156.34 140.366C156.341 137.956 156.547 135.413 156.548 132.87C156.57 99.6787 156.57 66.4871 156.548 33.2956C156.546 30.9588 156.322 28.6223 156.229 26.0806C156.528 28.1136 157.033 30.3513 157.036 32.5897C157.087 66.2742 157.082 99.9588 157.043 133.643C157.041 135.84 156.656 138.036 156.34 140.366Z" fill="#F6BE00"/>
<path d="M28.6042 157.095C32.6 156.962 36.751 156.924 40.9021 156.923C71.6931 156.918 102.484 156.919 133.275 156.924C134.032 156.924 134.789 156.994 135.692 157.127C134.943 157.27 134.048 157.357 133.154 157.358C99.3215 157.364 65.489 157.364 31.6566 157.356C30.6909 157.356 29.7252 157.26 28.6042 157.095Z" fill="#F6BE00"/>
<path d="M136.733 157.214C136.751 157.113 136.884 157.05 137.127 156.997C137.108 157.089 136.978 157.17 136.733 157.214Z" fill="#F6BE00"/>
<path d="M111.616 121.64C111.631 121.202 111.647 120.764 111.706 120.015C112.174 118.561 112.599 117.419 113.024 116.276C113.024 116.276 112.988 116.243 113.154 116.161C113.609 109.762 113.897 103.445 114.185 97.128C116.792 95.3139 119.4 93.4997 122.184 91.5225C122.437 91.2246 122.515 91.0897 122.592 90.9549C122.592 90.9549 122.555 90.9513 122.674 90.9366C122.87 90.7887 122.948 90.6554 123.025 90.5221C123.152 90.4945 123.244 90.4222 123.437 90.1828C123.644 89.9327 123.716 89.805 123.788 89.6772C123.788 89.6772 123.771 89.6752 123.886 89.642C124.122 89.4087 124.243 89.2086 124.365 89.0084C124.31 88.9529 124.256 88.8975 124.393 88.8691C124.751 88.6133 124.918 88.3303 125.084 88.0474C125.084 88.0474 125.048 88.0444 125.159 88.024C125.329 87.8693 125.387 87.7349 125.446 87.6005C125.446 87.6005 125.432 87.6 125.561 87.5454C127.478 84.9096 129.088 82.2448 129.569 79.0249C128.272 80.9447 126.974 82.8645 125.677 84.7844C125.677 84.7844 125.608 84.8389 125.479 84.9338C125.041 85.4072 124.732 85.7857 124.423 86.1641C124.423 86.1641 124.498 86.2542 124.363 86.2525C124.12 86.325 124.05 86.4263 124.019 86.5547C124.019 86.5547 124.007 86.5894 123.906 86.6305C123.698 86.7449 123.631 86.8443 123.603 86.9697C123.603 86.9697 123.592 87.0042 123.494 87.0369C123.294 87.1312 123.225 87.2196 123.192 87.3347C123.192 87.3347 123.151 87.3702 123.018 87.4379C122.607 87.7983 122.329 88.0909 122.051 88.3835C122.051 88.3835 122.097 88.4118 121.958 88.4198C121.511 88.7128 121.202 88.9976 120.893 89.2825C120.893 89.2825 120.873 89.26 120.768 89.2895C120.577 89.4378 120.493 89.5567 120.408 89.6756C118.042 91.0883 115.6 92.3909 113.345 93.9627C112.299 94.6921 111.365 95.8265 110.82 96.9843C109.412 99.9766 108.105 103.036 107.048 106.166C106.545 107.657 106.904 109.423 106.506 110.97C106.059 112.705 105.434 114.49 104.453 115.965C103.416 117.522 102.184 118.694 103.382 120.798C103.824 121.574 103.582 123.695 103.342 123.746C101.83 124.068 100.23 123.997 98.6584 124.011C98.3951 124.014 98.0725 123.64 97.8744 123.71C95.4351 124.584 88.9113 124.826 86.3391 124.037C86.3982 123.29 86.4604 122.506 86.5225 121.721C85.6447 124.085 84.0468 124.453 81.8533 123.45C81.6365 121.271 82.3745 119.359 83.838 117.8C85.7891 115.721 86.8096 113.256 86.8297 110.497C86.8513 107.541 86.6448 104.566 86.2938 101.628C85.9845 99.0388 84.4049 97.3944 81.7567 96.9306C79.5233 96.5395 77.2871 96.1653 74.9548 95.7669C75.5944 89.9666 76.2179 84.3127 76.8414 78.6587C76.7445 78.608 76.6475 78.5574 76.5506 78.5067C76.2284 79.1143 75.7666 79.6877 75.6081 80.3353C74.8874 83.2799 74.0504 86.2167 73.6265 89.209C72.6415 96.1607 69.5359 101.825 64.261 106.464C60.7952 109.511 57.595 112.863 54.3128 116.116C52.314 118.097 49.9928 119.47 47.1524 119.341C43.8513 119.191 40.5258 118.931 37.2821 118.333C33.5258 117.64 31.8078 114.833 32.1268 111.031C32.1945 110.225 31.7519 109.186 31.1961 108.566C30.5314 107.825 29.5192 107.371 28.6119 106.876C21.9597 103.248 17.4982 97.6992 14.4958 90.8597C14.4125 90.6701 14.266 90.4822 14.259 90.2895C14.2215 89.2639 14.2191 88.237 14.2046 87.2105C15.1303 87.5346 16.1353 87.7224 16.9677 88.2069C20.1859 90.0798 23.2991 92.1377 26.5546 93.9401C28.1048 94.7984 29.8663 95.3023 31.5707 95.8454C32.8919 96.2664 34.1958 96.1896 35.0973 94.8929C35.9738 93.6322 35.738 92.3986 34.8919 91.2457C32.3061 87.7223 30.9995 83.8033 31.203 79.4196C31.2362 78.7061 31.4194 77.9995 31.5333 77.2896C31.7225 77.2311 31.9117 77.1726 32.1009 77.1141C32.5031 77.7362 32.9358 78.3409 33.3018 78.9837C34.3939 80.9015 35.3197 83.2119 37.8123 83.4227C40.348 83.6372 41.0894 81.2271 42.1213 79.4962C43.9153 76.4867 44.6903 73.2861 43.7724 69.7681C43.2239 67.6663 43.9697 65.7662 45.3138 64.1792C46.6394 62.614 46.6214 61.1675 45.5382 59.5056C44.5976 58.0624 43.6827 56.5693 43.0286 54.9858C42.6762 54.1324 42.4985 52.7006 42.9681 52.1568C43.4347 51.6165 44.8506 51.6501 45.7784 51.8212C46.7584 52.0019 47.6996 52.5663 48.5757 53.0984C50.0972 54.0224 51.5556 55.0505 53.1115 56.0821C59.1436 47.8041 67.7407 43.3298 76.8404 39.6254C81.8208 37.598 86.8694 37.2186 91.9255 39.5055C96.6275 41.6323 101.596 40.9169 106.446 40.5202C111.443 40.1115 116.197 40.7202 120.949 42.1836C122.614 42.6963 124.507 42.9389 126.22 42.7197C129.165 42.3429 131.685 43.125 134.087 44.6241C141.18 49.0525 144.768 55.521 144.726 63.8247C144.671 74.6714 142.511 84.9382 135.744 93.8337C133.253 97.1083 132.897 101.14 132.557 105.057C132.229 108.839 132.153 112.65 132.152 116.448C132.151 117.709 132.733 118.968 133.035 120.231C133.387 121.698 132.942 122.461 131.289 122.445C129.776 122.431 128.257 122.726 126.746 122.682C125.88 122.657 125.025 122.228 124.039 121.944C123.387 123.88 121.489 123.715 119.671 123.625C118.251 123.555 117.065 123.089 116.76 121.301C116.603 121.703 116.447 122.105 116.094 122.682C114.418 122.634 112.396 124.325 111.616 121.64ZM51.7125 110.354C49.6574 113.408 46.5217 114.409 43.1098 114.923C42.5704 115.004 42.0641 115.305 41.5424 115.504C41.6277 115.821 41.7129 116.138 41.7982 116.456C44.0584 115.989 46.4665 115.859 48.534 114.953C50.3304 114.165 51.832 112.59 53.271 111.168C53.7398 110.704 53.6012 109.626 53.7404 108.829C53.1244 109.255 52.5085 109.68 51.7125 110.354ZM54.0624 90.0184C53.479 90.4823 52.8955 90.9462 52.1039 91.5756C53.0336 91.7319 54.0201 92.0978 54.9499 91.9873C55.6256 91.907 56.4219 91.3143 56.7799 90.7189C56.9647 90.4114 56.4291 89.2262 56.0127 89.0956C55.1829 88.8354 54.2106 89.0295 53.2972 89.036C53.4688 89.2863 53.6404 89.5366 54.0624 90.0184ZM38.857 109.682C37.8854 109.865 36.9138 110.048 35.9 110.239C37.7767 112.012 40.2068 111.476 42.5527 108.509C41.1685 108.956 40.1761 109.277 38.857 109.682Z" fill="black"/>
<path d="M82.564 100.154C82.8947 101.03 83.3676 101.845 83.2599 102.575C82.5389 107.455 82.5858 112.563 79.3411 116.763C79.1192 117.05 79.2129 117.615 79.2377 118.046C79.2528 118.31 79.4215 118.563 79.5133 118.823C81.2008 123.617 79.256 125.918 74.2369 124.872C73.5221 124.723 73.0205 123.551 72.4208 122.853C72.1408 125.449 69.9276 125.048 68.076 124.847C66.2376 124.647 64.454 123.975 62.6313 123.579C62.1407 123.472 61.5921 123.671 61.0758 123.639C58.9719 123.507 58.0683 121.938 59.2939 120.235C60.8229 118.11 62.6523 116.203 64.2462 114.122C64.9844 113.158 65.9318 112.02 65.9743 110.929C66.0537 108.895 67.217 107.83 68.4064 106.468C70.208 104.404 71.7021 102.048 73.1463 99.7056C73.7901 98.6612 74.4913 98.1602 75.6223 98.4108C77.9035 98.9162 80.1669 99.5019 82.564 100.154Z" fill="black"/>
<path d="M114.049 97.2188C113.897 103.445 113.609 109.762 113.169 116.18C113.15 110.459 113.27 104.637 113.434 98.8166C113.448 98.3102 113.746 97.8117 114.049 97.2188Z" fill="#F6BE00"/>
<path d="M30.5703 8.82039C65.3606 8.75563 100.151 8.76124 134.941 8.81551C145.122 8.83139 153.781 15.753 156.247 25.9298C156.321 28.6219 156.546 30.9592 156.548 33.296C156.571 66.4874 156.571 99.6788 156.549 132.87C156.547 135.413 156.341 137.957 156.23 140.5C154.735 148.833 146.702 155.972 137.293 157.034C136.884 157.049 136.751 157.113 136.619 157.176C136.446 157.203 136.272 157.231 135.822 157.146C134.789 156.995 134.032 156.924 133.275 156.924C102.484 156.919 71.6933 156.918 40.9023 156.924C36.7514 156.925 32.6002 156.961 28.4492 156.982C21.0752 156.975 12.9369 150.937 10.0879 143.01C9.1945 140.524 8.65648 137.764 8.64941 135.128C8.55658 100.407 8.56963 65.6853 8.59766 30.9639C8.60748 18.7962 18.4126 8.84302 30.5703 8.82039ZM75.6221 98.4112C74.4912 98.1607 73.7902 98.661 73.1465 99.7052C71.7023 102.048 70.2078 104.404 68.4062 106.468C67.2169 107.83 66.0541 108.895 65.9746 110.929C65.932 112.019 64.9843 113.158 64.2461 114.122C62.6522 116.204 60.8229 118.11 59.2939 120.234C58.0683 121.938 58.9722 123.507 61.0762 123.639C61.5922 123.671 62.1405 123.473 62.6309 123.579C64.4536 123.975 66.2378 124.647 68.0762 124.847C69.9277 125.048 72.1408 125.448 72.4209 122.854C73.0204 123.551 73.5225 124.723 74.2373 124.872C79.256 125.918 81.2002 123.617 79.5127 118.823C79.4209 118.563 79.2524 118.309 79.2373 118.046C79.2125 117.615 79.1191 117.05 79.3408 116.763C82.5856 112.564 82.5388 107.455 83.2598 102.574C83.3673 101.845 82.8944 101.03 82.4375 100.055C80.1668 99.5022 77.9032 98.9166 75.6221 98.4112ZM91.9258 39.5059C86.8699 37.2191 81.8211 37.5978 76.8408 39.6251C67.7411 43.3294 59.1434 47.8041 53.1113 56.0821C51.5556 55.0506 50.0975 54.0226 48.5762 53.0987C47.7001 52.5667 46.7583 52.002 45.7783 51.8214C44.8505 51.6503 43.4344 51.617 42.9678 52.1573C42.4988 52.7013 42.6761 54.1322 43.0283 54.9854C43.6824 56.5689 44.5975 58.0628 45.5381 59.5059C46.6211 61.1678 46.639 62.6137 45.3135 64.1788C43.9694 65.7658 43.2242 67.6661 43.7725 69.7677C44.6904 73.2857 43.9152 76.4867 42.1211 79.4962C41.0893 81.227 40.3481 83.6373 37.8125 83.4229C35.32 83.2121 34.3938 80.9013 33.3018 78.9835C32.9358 78.3408 32.5028 77.7364 32.1006 77.1143C31.9115 77.1728 31.7223 77.2307 31.5332 77.2891C31.4193 77.999 31.2363 78.7064 31.2031 79.42C30.9997 83.8035 32.3059 87.7228 34.8916 91.2462C35.7376 92.399 35.9739 93.6321 35.0977 94.8927C34.1962 96.1894 32.8915 96.2667 31.5703 95.8458C29.866 95.3028 28.1047 94.7986 26.5547 93.9405C23.2992 92.1381 20.186 90.08 16.9678 88.2071C16.1355 87.7227 15.1307 87.5341 14.2051 87.21C14.2196 88.2364 14.2213 89.2636 14.2588 90.2891C14.2658 90.4818 14.4128 90.6699 14.4961 90.8595C17.4985 97.699 21.9601 103.248 28.6123 106.876C29.5196 107.371 30.5316 107.825 31.1963 108.566C31.7519 109.186 32.1945 110.225 32.127 111.031C31.8079 114.833 33.526 117.639 37.2822 118.332C40.5259 118.931 43.8513 119.191 47.1523 119.341C49.9928 119.47 52.3137 118.097 54.3125 116.116C57.5947 112.863 60.7951 109.512 64.2607 106.464C69.5356 101.825 72.642 96.1608 73.627 89.2091C74.0509 86.2168 74.8876 83.2796 75.6084 80.335C75.767 79.6876 76.2287 79.1144 76.5508 78.5069C76.6477 78.5576 76.7449 78.6076 76.8418 78.6583C76.2183 84.3121 75.5947 89.9665 74.9551 95.7667C77.2873 96.165 79.5236 96.5396 81.7568 96.9307C84.4048 97.3945 85.9844 99.0387 86.2939 101.628C86.6449 104.566 86.8516 107.541 86.8301 110.497C86.81 113.256 85.789 115.721 83.8379 117.8C82.3746 119.359 81.6367 121.271 81.8535 123.45C84.0469 124.453 85.6446 124.085 86.5225 121.722C86.4604 122.506 86.398 123.291 86.3389 124.037C88.911 124.827 95.4346 124.584 97.874 123.71C98.0721 123.639 98.395 124.013 98.6582 124.011C100.23 123.996 101.83 124.068 103.343 123.746C103.582 123.694 103.823 121.574 103.382 120.799C102.184 118.695 103.416 117.522 104.453 115.965C105.435 114.491 106.059 112.705 106.506 110.97C106.904 109.423 106.544 107.657 107.048 106.166C108.105 103.036 109.412 99.9766 110.82 96.9845C111.365 95.8268 112.299 94.6924 113.345 93.963C115.6 92.3911 118.043 91.088 120.62 89.6221C120.708 89.5109 120.795 89.3993 120.873 89.2598C120.873 89.2598 120.894 89.2823 121.189 89.2774C121.482 88.9739 121.775 88.6705 122.097 88.4122C122.096 88.4118 122.053 88.3833 122.347 88.3907C122.599 88.0595 122.852 87.7283 123.151 87.3702C123.155 87.3678 123.201 87.3367 123.416 87.3956C123.463 87.2679 123.51 87.1399 123.592 87.004C123.593 87.0009 123.615 86.9715 123.838 87.002C123.882 86.8678 123.927 86.7331 124.007 86.5889C124.008 86.5859 124.031 86.5566 124.256 86.588C124.306 86.4531 124.355 86.3178 124.498 86.254C124.498 86.254 124.423 86.1646 124.714 86.2012C124.997 85.7728 125.282 85.344 125.608 84.8389C125.611 84.8368 125.657 84.8078 125.783 84.9171C125.783 84.9129 125.784 84.9085 125.784 84.9044C126.974 82.8643 128.272 80.9443 129.569 79.0245C129.089 82.2444 127.478 84.9094 125.563 87.5518C125.576 87.1412 125.622 86.7145 125.67 86.2637C125.59 86.7112 125.513 87.1575 125.432 87.5997C125.432 87.5997 125.446 87.6002 125.241 87.6886C125.18 87.8184 125.118 87.9486 125.049 88.044C125.051 88.0445 125.071 88.0514 124.824 88.1261C124.67 88.4209 124.516 88.7158 124.201 88.8419C124.256 88.8973 124.31 88.9529 124.102 89.0186C123.993 89.2426 123.884 89.4667 123.771 89.6749C123.772 89.675 123.782 89.6791 123.577 89.7559C123.503 89.8815 123.429 90.007 123.301 90.3048C123.244 90.4218 123.153 90.4943 122.798 90.5909C122.719 90.723 122.641 90.8556 122.556 90.9512C122.559 90.9518 122.58 90.9594 122.363 91.0352C122.287 91.1724 122.21 91.3097 122.007 91.6856C119.4 93.4996 116.793 95.3141 113.913 97.3096C113.747 97.8118 113.448 98.3101 113.434 98.8165C113.27 104.637 113.15 110.459 112.988 116.243C112.991 116.246 113.011 116.281 112.75 116.373C112.38 117.581 112.009 118.79 111.663 120.326C111.647 120.764 111.632 121.202 111.439 121.862C111.939 124.049 114.057 124.464 116.29 122.507C116.446 122.105 116.603 121.703 116.76 121.301C117.065 123.089 118.251 123.555 119.671 123.625C121.489 123.715 123.387 123.88 124.039 121.943C125.025 122.227 125.88 122.656 126.746 122.682C128.257 122.726 129.775 122.431 131.289 122.445C132.941 122.461 133.386 121.698 133.035 120.232C132.733 118.969 132.152 117.709 132.152 116.448C132.154 112.65 132.228 108.839 132.557 105.057C132.896 101.14 133.253 97.1086 135.744 93.8341C142.511 84.9385 144.67 74.671 144.726 63.8243C144.768 55.5208 141.18 49.0524 134.087 44.6241C131.686 43.125 129.165 42.3431 126.221 42.7198C124.507 42.939 122.614 42.6964 120.949 42.1837C116.197 40.7203 111.443 40.1119 106.446 40.5206C101.597 40.9173 96.6277 41.6325 91.9258 39.5059Z" fill="#F6BE00"/>
<path d="M111.527 121.751C112.396 124.325 114.418 122.634 116.083 122.833C114.057 124.464 111.938 124.049 111.527 121.751Z" fill="#F6BE00"/>
<path d="M112.887 116.324C112.599 117.419 112.174 118.561 111.694 119.851C112.009 118.789 112.38 117.581 112.887 116.324Z" fill="#F6BE00"/>
<path d="M124.569 86.1825C124.732 85.7857 125.04 85.4072 125.457 84.9722C125.281 85.344 124.998 85.7724 124.569 86.1825Z" fill="#F6BE00"/>
<path d="M121.041 89.2801C121.202 88.9976 121.511 88.7128 121.944 88.3972C121.775 88.6703 121.482 88.9739 121.041 89.2801Z" fill="#F6BE00"/>
<path d="M122.199 88.3872C122.329 88.0909 122.608 87.7983 122.995 87.4514C122.852 87.7284 122.599 88.0596 122.199 88.3872Z" fill="#F6BE00"/>
<path d="M124.954 88.0866C124.918 88.3303 124.751 88.6133 124.474 88.9536C124.516 88.7159 124.67 88.4209 124.954 88.0866Z" fill="#F6BE00"/>
<path d="M124.233 89.0136C124.243 89.2086 124.122 89.4088 123.888 89.6499C123.884 89.4669 123.993 89.2428 124.233 89.0136Z" fill="#F6BE00"/>
<path d="M123.304 87.3653C123.225 87.2196 123.294 87.1312 123.476 87.041C123.509 87.1403 123.462 87.2681 123.304 87.3653Z" fill="#F6BE00"/>
<path d="M125.344 87.6447C125.388 87.7349 125.329 87.8693 125.164 88.0413C125.118 87.9489 125.18 87.8189 125.344 87.6447Z" fill="#F6BE00"/>
<path d="M122.478 90.9949C122.515 91.0897 122.438 91.2245 122.247 91.403C122.211 91.3094 122.287 91.1722 122.478 90.9949Z" fill="#F6BE00"/>
<path d="M122.911 90.5566C122.947 90.6554 122.87 90.7887 122.677 90.9549C122.641 90.8556 122.719 90.7234 122.911 90.5566Z" fill="#F6BE00"/>
<path d="M123.721 86.9858C123.631 86.8443 123.698 86.7449 123.888 86.6354C123.927 86.7335 123.883 86.8677 123.721 86.9858Z" fill="#F6BE00"/>
<path d="M124.137 86.5712C124.05 86.4263 124.12 86.325 124.317 86.217C124.355 86.318 124.305 86.4529 124.137 86.5712Z" fill="#F6BE00"/>
<path d="M123.683 89.7166C123.716 89.805 123.644 89.9327 123.464 90.0966C123.429 90.0072 123.503 89.8816 123.683 89.7166Z" fill="#F6BE00"/>
<path d="M120.514 89.649C120.493 89.5567 120.577 89.4378 120.772 89.3036C120.795 89.3996 120.707 89.511 120.514 89.649Z" fill="#F6BE00"/>
<path d="M51.8026 110.23C52.5085 109.68 53.1245 109.255 53.7404 108.829C53.6012 109.626 53.7399 110.704 53.2711 111.168C51.832 112.59 50.3305 114.165 48.534 114.953C46.4666 115.859 44.0584 115.989 41.7982 116.456C41.713 116.138 41.6277 115.821 41.5425 115.504C42.0641 115.305 42.5705 115.004 43.1099 114.923C46.5218 114.409 49.6574 113.408 51.8026 110.23Z" fill="#F6BE00"/>
<path d="M53.9373 89.9027C53.6405 89.5366 53.4689 89.2863 53.2973 89.036C54.2107 89.0295 55.183 88.8354 56.0128 89.0956C56.4292 89.2262 56.9648 90.4114 56.78 90.7189C56.422 91.3143 55.6257 91.907 54.95 91.9873C54.0202 92.0978 53.0337 91.7319 52.104 91.5756C52.8956 90.9462 53.4791 90.4823 53.9373 89.9027Z" fill="#F6BE00"/>
<path d="M39.0206 109.64C40.1763 109.277 41.1686 108.956 42.5528 108.509C40.207 111.476 37.7769 112.012 35.9001 110.239C36.914 110.048 37.8856 109.865 39.0206 109.64Z" fill="#F6BE00"/>
</svg>
