<svg width="409" height="123" viewBox="0 0 409 123" fill="none" xmlns="http://www.w3.org/2000/svg">
<path d="M408.02 120.349C407.343 120.385 406.666 120.26 405.989 120.259C394.227 120.246 382.464 120.217 370.702 120.286C369.113 120.295 368.022 119.83 366.962 118.675C353.919 104.471 340.836 90.3047 327.776 76.1174C327.412 75.7226 327.184 75.2026 326.893 74.741C326.717 74.8578 326.54 74.9746 326.363 75.0913C326.363 90.0554 326.363 105.019 326.363 120.117C316.326 120.117 306.468 120.117 296.474 120.117C296.474 80.8138 296.474 41.5017 296.474 2.14384C306.397 2.14384 316.257 2.14384 326.283 2.14384C326.283 16.9883 326.283 31.7492 326.283 47.0661C328.112 45.1046 329.596 43.5265 331.065 41.9338C342.921 29.0777 354.765 16.2103 366.656 3.38612C367.241 2.75441 368.223 2.11851 369.024 2.11347C381.681 2.03398 394.338 2.05763 407.52 2.05763C389.307 21.8191 371.369 41.2817 353.369 60.812C359.3 67.2516 365.142 73.6026 370.993 79.9447C382.992 92.9506 394.997 105.951 406.996 118.958C407.275 119.261 407.508 119.607 407.891 119.985C408.02 120.037 408.02 120.245 408.02 120.349Z" fill="white"/>
<path d="M84.0649 104.798C74.9851 97.324 66.0163 89.9479 57.0462 82.5735C48.0782 75.2008 39.1088 67.8298 29.907 60.2665C29.907 80.3228 29.907 100.179 29.907 120.142C19.8211 120.142 9.95847 120.142 0 120.142C0 80.2581 0 40.4396 0 0C1.36911 0.5744 2.71956 0.817545 3.64682 1.57722C27.8138 21.3764 51.9367 41.2294 76.0697 61.0702C76.422 61.3599 76.8057 61.6116 77.3964 62.0429C77.3964 41.9639 77.3964 22.1544 77.3964 2.20113C87.3925 2.20113 97.2465 2.20113 107.236 2.20113C107.236 41.9694 107.236 81.7816 107.236 121.687C105.843 122.26 104.7 121.811 103.542 120.85C97.1077 115.506 90.635 110.209 84.0649 104.798Z" fill="white"/>
<path d="M203.471 9.3064C230.747 -7.55253 266.268 -0.729234 284.666 24.9564C276.615 29.6341 268.582 34.3013 260.573 38.9548C246.392 23.5159 223.825 24.7817 211.101 38.8292C199.053 52.1304 199.913 72.9272 213.193 85.5265C226.35 98.0103 249.416 98.1376 262.596 80.8701C270.504 85.4631 278.423 90.0622 286.344 94.6631C275.479 112.197 253.66 124.406 229.568 121.941C202.936 119.215 181.945 99.5371 176.397 74.4215C170.821 49.1786 181.624 23.1413 203.471 9.3064Z" fill="white"/>
<path d="M127.564 35.7572C127.564 24.4289 127.564 13.3081 127.564 2.14124C137.653 2.14124 147.524 2.14124 157.5 2.14124C157.5 41.4873 157.5 80.7468 157.5 120.131C147.598 120.131 137.734 120.131 127.564 120.131C127.564 92.0709 127.564 64.0179 127.564 35.7572Z" fill="white"/>
</svg>
