<svg width="40" height="38" viewBox="0 0 40 38" fill="none" xmlns="http://www.w3.org/2000/svg">
<path d="M30.7085 36.209V16.0423C30.7085 15.5561 30.5153 15.0898 30.1715 14.746C29.8277 14.4021 29.3614 14.209 28.8752 14.209H10.5418C10.0556 14.209 9.58928 14.4021 9.24547 14.746C8.90165 15.0898 8.7085 15.5561 8.7085 16.0423V36.209" stroke="#F4D23C" stroke-width="2.75" stroke-linecap="round" stroke-linejoin="round"/>
<path d="M38.0417 32.5424C38.0417 33.5148 37.6554 34.4475 36.9677 35.1351C36.2801 35.8227 35.3475 36.209 34.375 36.209H5.04167C4.06921 36.209 3.13658 35.8227 2.44894 35.1351C1.76131 34.4475 1.375 33.5148 1.375 32.5424V12.3757C1.3746 11.6852 1.56916 11.0087 1.93631 10.4239C2.30346 9.8391 2.82827 9.36988 3.45033 9.07021L18.0253 1.78454C18.5459 1.51544 19.1233 1.375 19.7092 1.375C20.2952 1.375 20.8726 1.51544 21.3932 1.78454L35.9645 9.07021C36.5869 9.36962 37.1121 9.83873 37.4796 10.4235C37.8471 11.0083 38.0419 11.685 38.0417 12.3757V32.5424Z" stroke="#F4D23C" stroke-width="2.75" stroke-linecap="round" stroke-linejoin="round"/>
<path d="M8.7085 21.5424H30.7085" stroke="#F4D23C" stroke-width="2.75" stroke-linecap="round" stroke-linejoin="round"/>
<path d="M8.7085 28.8756H30.7085" stroke="#F4D23C" stroke-width="2.75" stroke-linecap="round" stroke-linejoin="round"/>
</svg>
