<svg width="40" height="40" viewBox="0 0 40 40" fill="none" xmlns="http://www.w3.org/2000/svg">
<path d="M37.1983 25.2084H28.8749C27.9025 25.2084 26.9698 25.5947 26.2822 26.2823C25.5946 26.9699 25.2083 27.9026 25.2083 28.875V37.1984" stroke="#F4D23C" stroke-width="2.75" stroke-linecap="round" stroke-linejoin="round"/>
<path d="M10.5415 3.83167V6.875C10.5415 8.33369 11.121 9.73264 12.1524 10.7641C13.1839 11.7955 14.5828 12.375 16.0415 12.375C17.014 12.375 17.9466 12.7613 18.6342 13.4489C19.3219 14.1366 19.7082 15.0692 19.7082 16.0417C19.7082 18.0583 21.3582 19.7083 23.3748 19.7083C24.3473 19.7083 25.2799 19.322 25.9676 18.6344C26.6552 17.9468 27.0415 17.0141 27.0415 16.0417C27.0415 14.025 28.6915 12.375 30.7082 12.375H36.5198" stroke="#F4D23C" stroke-width="2.75" stroke-linecap="round" stroke-linejoin="round"/>
<path d="M17.8749 37.95V30.7083C17.8749 29.7359 17.4886 28.8032 16.8009 28.1156C16.1133 27.428 15.1807 27.0417 14.2082 27.0417C13.2358 27.0417 12.3031 26.6554 11.6155 25.9677C10.9279 25.2801 10.5416 24.3475 10.5416 23.375V21.5417C10.5416 20.5692 10.1552 19.6366 9.46761 18.9489C8.77998 18.2613 7.84735 17.875 6.87489 17.875H1.46655" stroke="#F4D23C" stroke-width="2.75" stroke-linecap="round" stroke-linejoin="round"/>
<path d="M19.7083 38.0417C29.8336 38.0417 38.0417 29.8336 38.0417 19.7083C38.0417 9.58311 29.8336 1.375 19.7083 1.375C9.58311 1.375 1.375 9.58311 1.375 19.7083C1.375 29.8336 9.58311 38.0417 19.7083 38.0417Z" stroke="#F4D23C" stroke-width="2.75" stroke-linecap="round" stroke-linejoin="round"/>
</svg>
